<svg width="24" height="16" viewBox="0 0 24 16" fill="none" xmlns="http://www.w3.org/2000/svg">
<path d="M13.6478 6.7678L8.91458 7.93681C8.12546 8.13177 7.67018 8.95802 7.92716 9.72858L7.93793 9.76051C8.15851 10.4211 8.81246 10.8263 9.49574 10.7308C10.9733 10.524 13.3147 10.1965 13.3147 10.1965C16.4459 12.1275 19.1687 11.7116 21.4112 8.53209L23.5892 7.45072V0.426636L19.1122 2.97261L12.5906 2.89314C11.5244 2.88014 10.5032 3.32056 9.78131 4.10448L8.4541 5.54569C8.0705 5.96235 7.88594 6.52494 7.9487 7.08754L8.10801 8.52057" fill="#FFD8BF"/>
<path d="M8.10762 8.89007C7.92158 8.89007 7.76152 8.75044 7.74036 8.56142L7.58105 7.12838C7.5584 6.92563 7.70471 6.74292 7.90784 6.72027C8.11022 6.69762 8.29367 6.84393 8.31632 7.04669L8.47563 8.47972C8.49828 8.68248 8.35197 8.86519 8.14884 8.88784C8.1351 8.88932 8.12099 8.89007 8.10762 8.89007Z" fill="#2D363D"/>
<mask id="mask0_310_803" style="mask-type:luminance" maskUnits="userSpaceOnUse" x="7" y="0" width="17" height="6">
<path d="M7.99023 0H23.9612V5.95905H7.99023V0Z" fill="white"/>
</mask>
<g mask="url(#mask0_310_803)">
<path d="M8.454 5.91523C8.3645 5.91523 8.27464 5.88292 8.20371 5.81756C8.05331 5.67942 8.04366 5.44584 8.1818 5.29545L9.509 3.85424C10.2896 3.00682 11.3936 2.52332 12.5448 2.52332C12.5615 2.52332 12.5782 2.52332 12.5949 2.52369L19.0163 2.60205L23.406 0.105463C23.5832 0.00445561 23.8093 0.0664711 23.9103 0.243976C24.0113 0.42111 23.9493 0.646891 23.7718 0.747898L19.2952 3.29387C19.2391 3.32544 19.176 3.34215 19.1121 3.34215C19.1106 3.34215 19.1091 3.34215 19.1077 3.34215L12.586 3.26268C11.6242 3.25117 10.7033 3.64888 10.0534 4.35482L8.7262 5.79603C8.65341 5.87512 8.55389 5.91523 8.454 5.91523Z" fill="#2D363D"/>
</g>
<path d="M16.86 11.7361C15.7274 11.7361 14.5175 11.3514 13.2349 10.5808L9.54698 11.0966C8.68693 11.217 7.86291 10.7041 7.58699 9.87712L7.57622 9.84519C7.42137 9.38063 7.46816 8.8678 7.70434 8.43852C7.94089 8.00924 8.34975 7.69582 8.82582 7.5781L13.559 6.40872C13.7573 6.3597 13.9579 6.48076 14.0069 6.67906C14.0559 6.87699 13.9348 7.07752 13.7365 7.12654L9.00332 8.29555C8.72295 8.36499 8.49197 8.54249 8.35235 8.79501C8.21309 9.0479 8.18672 9.33792 8.27808 9.61161L8.28884 9.64355C8.45187 10.1322 8.93796 10.4356 9.44449 10.3647L13.2631 9.83033C13.3485 9.81845 13.4354 9.83665 13.5089 9.88195C16.5562 11.761 19.0416 11.25 21.109 8.31931C21.1442 8.26881 21.1914 8.22833 21.2464 8.20122L23.4243 7.11985C23.6074 7.02887 23.8291 7.10351 23.9201 7.28622C24.011 7.46892 23.9364 7.69062 23.7537 7.7816L21.6589 8.82175C20.266 10.7635 18.6603 11.7361 16.86 11.7361Z" fill="#2D363D"/>
<path d="M6.21962 7.24316C12.1501 4.01093 15.0585 11.712 4.99231 15.6015C-3.53165 8.98776 1.46783 2.44532 6.21962 7.24316Z" fill="#EA685E"/>
<path d="M4.99279 15.971C4.91183 15.971 4.83162 15.9446 4.76589 15.8933C1.37436 13.262 -0.381386 10.2139 0.0698042 7.73962C0.287415 6.5461 1.01118 5.6764 2.05541 5.3537C2.70342 5.15354 4.43094 4.91179 6.48264 6.98318C6.62636 7.12838 6.62487 7.36233 6.47967 7.50604C6.33447 7.64938 6.10052 7.64827 5.95681 7.50307C4.71279 6.24716 3.37036 5.72096 2.27414 6.06C1.5021 6.29841 0.964014 6.95904 0.79765 7.87182C0.675476 8.54173 0.695529 9.65393 1.48576 11.1475C2.21472 12.5256 3.41492 13.8817 5.05443 15.18C7.25765 14.3025 8.9874 13.1584 10.0647 11.8646C10.1954 11.7079 10.4286 11.6863 10.5853 11.8167C10.7424 11.9474 10.7639 12.1802 10.6332 12.3373C9.44416 13.7655 7.5395 15.0136 5.1261 15.9461C5.08265 15.9628 5.03772 15.971 4.99279 15.971Z" fill="#2D363D"/>
<path d="M13.6478 6.76782L8.91458 7.93683C8.12546 8.13179 7.67018 8.95804 7.92716 9.72859L7.93793 9.76053C8.15851 10.4212 8.81246 10.8263 9.49574 10.7309C10.9733 10.524 13.3147 10.1965 13.3147 10.1965C16.4459 12.1275 19.1687 11.7116 21.4112 8.5321" fill="#FFD8BF"/>
<path d="M16.86 11.7361C15.7274 11.7361 14.5175 11.3514 13.2349 10.5808L9.54698 11.0966C8.68693 11.217 7.86291 10.7041 7.58699 9.87712L7.57622 9.84519C7.42137 9.38063 7.46816 8.8678 7.70434 8.43852C7.94089 8.00924 8.34975 7.69582 8.82582 7.5781L13.559 6.40872C13.7573 6.3597 13.9579 6.48076 14.0069 6.67906C14.0559 6.87699 13.9348 7.07752 13.7365 7.12654L9.00332 8.29555C8.72295 8.36499 8.49197 8.54249 8.35235 8.79501C8.21309 9.0479 8.18672 9.33792 8.27808 9.61161L8.28884 9.64355C8.45187 10.1322 8.93796 10.4356 9.44448 10.3647L13.2631 9.83033C13.3485 9.81845 13.4354 9.83665 13.5089 9.88195C16.5562 11.761 19.0416 11.25 21.1089 8.31931C21.2267 8.15221 21.4576 8.11247 21.624 8.22982C21.7911 8.34754 21.8312 8.57814 21.7135 8.74488C20.3079 10.7379 18.684 11.7361 16.86 11.7361Z" fill="#2D363D"/>
</svg>
