<svg xmlns="http://www.w3.org/2000/svg" xmlns:xlink="http://www.w3.org/1999/xlink" width="1024" zoomAndPan="magnify" viewBox="0 0 768 767.999994" height="1024" preserveAspectRatio="xMidYMid meet" version="1.0"><defs><g/><clipPath id="b425d7503e"><path d="M 265.921875 224 L 427 224 L 427 377.488281 L 265.921875 377.488281 Z M 265.921875 224 " clip-rule="nonzero"/></clipPath><clipPath id="e135e969cd"><path d="M 339 141.34375 L 502.066406 141.34375 L 502.066406 275 L 339 275 Z M 339 141.34375 " clip-rule="nonzero"/></clipPath></defs><g clip-path="url(#b425d7503e)"><path fill="#7bc1b7" d="M 417.261719 323.457031 C 413.855469 320.042969 410.710938 316.402344 407.835938 312.535156 L 407.835938 335.042969 C 407.851562 335.835938 407.828125 336.628906 407.765625 337.417969 C 407.703125 338.207031 407.601562 338.992188 407.460938 339.773438 C 407.320312 340.554688 407.140625 341.324219 406.921875 342.089844 C 406.707031 342.851562 406.449219 343.601562 406.160156 344.335938 C 405.867188 345.074219 405.539062 345.792969 405.175781 346.5 C 404.808594 347.203125 404.414062 347.886719 403.980469 348.554688 C 403.546875 349.21875 403.085938 349.859375 402.589844 350.476562 C 402.09375 351.097656 401.566406 351.6875 401.011719 352.253906 C 400.457031 352.820312 399.875 353.359375 399.265625 353.867188 C 398.660156 354.375 398.027344 354.851562 397.371094 355.296875 C 396.714844 355.742188 396.039062 356.15625 395.339844 356.53125 C 394.644531 356.910156 393.929688 357.253906 393.199219 357.5625 C 392.46875 357.867188 391.722656 358.136719 390.964844 358.371094 C 390.207031 358.605469 389.441406 358.800781 388.664062 358.957031 C 387.886719 359.113281 387.101562 359.230469 386.3125 359.308594 C 385.527344 359.386719 384.734375 359.425781 383.941406 359.425781 C 383.148438 359.425781 382.359375 359.386719 381.570312 359.308594 C 380.78125 359.230469 379.996094 359.113281 379.21875 358.957031 C 378.441406 358.800781 377.675781 358.605469 376.917969 358.371094 C 376.160156 358.136719 375.414062 357.867188 374.683594 357.5625 C 373.953125 357.253906 373.238281 356.910156 372.542969 356.53125 C 371.84375 356.15625 371.167969 355.742188 370.511719 355.296875 C 369.855469 354.851562 369.226562 354.375 368.617188 353.867188 C 368.007812 353.359375 367.425781 352.820312 366.871094 352.253906 C 366.316406 351.6875 365.792969 351.097656 365.296875 350.476562 C 364.800781 349.859375 364.335938 349.21875 363.902344 348.554688 C 363.472656 347.886719 363.074219 347.203125 362.710938 346.5 C 362.34375 345.792969 362.015625 345.074219 361.726562 344.335938 C 361.433594 343.601562 361.175781 342.851562 360.960938 342.089844 C 360.742188 341.324219 360.5625 340.554688 360.421875 339.773438 C 360.28125 338.992188 360.179688 338.207031 360.117188 337.417969 C 360.054688 336.628906 360.03125 335.835938 360.046875 335.042969 L 360.046875 283.261719 L 308.28125 283.261719 C 307.027344 283.261719 305.777344 283.164062 304.539062 282.964844 C 303.296875 282.769531 302.082031 282.476562 300.886719 282.089844 C 299.691406 281.699219 298.535156 281.21875 297.417969 280.648438 C 296.296875 280.078125 295.230469 279.421875 294.214844 278.683594 C 293.199219 277.945312 292.25 277.128906 291.363281 276.242188 C 290.476562 275.351562 289.664062 274.398438 288.929688 273.378906 C 288.191406 272.363281 287.539062 271.292969 286.972656 270.171875 C 286.40625 269.054688 285.929688 267.894531 285.542969 266.699219 C 285.160156 265.503906 284.871094 264.285156 284.675781 263.042969 C 284.484375 261.804688 284.390625 260.554688 284.394531 259.300781 C 284.398438 258.042969 284.5 256.796875 284.703125 255.554688 C 284.902344 254.316406 285.199219 253.101562 285.59375 251.90625 C 285.984375 250.714844 286.46875 249.558594 287.046875 248.441406 C 287.621094 247.328125 288.28125 246.261719 289.023438 245.25 C 289.765625 244.238281 290.585938 243.289062 291.476562 242.40625 C 292.371094 241.523438 293.324219 240.714844 294.347656 239.980469 L 296.15625 238.679688 C 293.820312 236.734375 291.648438 234.621094 289.636719 232.339844 C 287.507812 229.917969 285.515625 227.390625 283.660156 224.753906 L 282.777344 225.410156 C 281.007812 226.738281 279.351562 228.199219 277.808594 229.789062 C 276.265625 231.375 274.859375 233.074219 273.582031 234.882812 C 272.304688 236.695312 271.175781 238.589844 270.195312 240.578125 C 269.21875 242.5625 268.398438 244.613281 267.738281 246.726562 C 267.078125 248.839844 266.589844 250.992188 266.265625 253.183594 C 265.945312 255.375 265.792969 257.578125 265.816406 259.789062 C 265.835938 262.003906 266.03125 264.203125 266.398438 266.386719 C 266.761719 268.570312 267.296875 270.714844 267.996094 272.8125 C 268.699219 274.914062 269.558594 276.949219 270.578125 278.914062 C 271.597656 280.878906 272.761719 282.753906 274.074219 284.539062 C 275.386719 286.320312 276.828125 287.992188 278.402344 289.550781 C 279.976562 291.109375 281.660156 292.535156 283.457031 293.828125 C 285.253906 295.125 287.136719 296.273438 289.113281 297.269531 C 291.089844 298.269531 293.132812 299.109375 295.238281 299.792969 C 297.347656 300.472656 299.492188 300.984375 301.679688 301.328125 C 303.867188 301.671875 306.070312 301.84375 308.28125 301.847656 L 341.460938 301.847656 L 341.460938 335.003906 C 341.441406 336.410156 341.488281 337.8125 341.605469 339.210938 C 341.722656 340.613281 341.910156 342.003906 342.164062 343.382812 C 342.421875 344.765625 342.746094 346.128906 343.136719 347.480469 C 343.527344 348.828125 343.984375 350.15625 344.507812 351.460938 C 345.03125 352.765625 345.617188 354.039062 346.265625 355.285156 C 346.914062 356.53125 347.625 357.742188 348.394531 358.917969 C 349.164062 360.09375 349.988281 361.226562 350.871094 362.320312 C 351.753906 363.414062 352.6875 364.460938 353.671875 365.460938 C 354.660156 366.464844 355.691406 367.414062 356.773438 368.3125 C 357.851562 369.210938 358.972656 370.054688 360.136719 370.839844 C 361.300781 371.628906 362.5 372.355469 363.738281 373.023438 C 364.972656 373.691406 366.238281 374.296875 367.535156 374.839844 C 368.832031 375.382812 370.148438 375.859375 371.492188 376.269531 C 372.835938 376.683594 374.195312 377.027344 375.574219 377.304688 C 376.953125 377.578125 378.339844 377.789062 379.738281 377.925781 C 381.136719 378.066406 382.535156 378.136719 383.941406 378.136719 C 385.347656 378.136719 386.75 378.066406 388.144531 377.925781 C 389.542969 377.789062 390.933594 377.578125 392.308594 377.304688 C 393.6875 377.027344 395.046875 376.683594 396.390625 376.269531 C 397.734375 375.859375 399.054688 375.382812 400.347656 374.839844 C 401.644531 374.296875 402.910156 373.691406 404.148438 373.023438 C 405.382812 372.355469 406.582031 371.628906 407.746094 370.839844 C 408.910156 370.054688 410.03125 369.210938 411.113281 368.3125 C 412.191406 367.414062 413.226562 366.464844 414.210938 365.460938 C 415.195312 364.460938 416.128906 363.414062 417.011719 362.320312 C 417.894531 361.226562 418.71875 360.09375 419.488281 358.917969 C 420.257812 357.742188 420.96875 356.53125 421.617188 355.285156 C 422.265625 354.039062 422.851562 352.765625 423.375 351.460938 C 423.898438 350.15625 424.355469 348.828125 424.746094 347.480469 C 425.136719 346.128906 425.460938 344.765625 425.71875 343.382812 C 425.972656 342.003906 426.160156 340.613281 426.277344 339.210938 C 426.394531 337.8125 426.445312 336.410156 426.421875 335.003906 L 426.421875 331.1875 C 423.15625 328.863281 420.101562 326.285156 417.261719 323.457031 Z M 417.261719 323.457031 " fill-opacity="1" fill-rule="nonzero"/></g><g clip-path="url(#e135e969cd)"><path fill="#0b8fac" d="M 345.472656 225.074219 C 344.0625 228.375 342.105469 231.3125 339.601562 233.882812 L 340.21875 235.285156 L 340.21875 235.429688 L 360.046875 235.429688 L 360.046875 183.707031 C 360.0625 182.933594 360.113281 182.164062 360.207031 181.394531 C 360.296875 180.628906 360.421875 179.867188 360.585938 179.113281 C 360.75 178.359375 360.953125 177.613281 361.1875 176.875 C 361.425781 176.140625 361.695312 175.417969 362.003906 174.710938 C 362.308594 174 362.648438 173.308594 363.023438 172.632812 C 363.394531 171.953125 363.800781 171.296875 364.238281 170.660156 C 364.675781 170.023438 365.144531 169.410156 365.640625 168.816406 C 366.136719 168.226562 366.660156 167.660156 367.214844 167.121094 C 367.765625 166.578125 368.34375 166.066406 368.945312 165.582031 C 369.546875 165.097656 370.167969 164.640625 370.816406 164.21875 C 371.460938 163.792969 372.125 163.402344 372.808594 163.039062 C 373.492188 162.679688 374.191406 162.355469 374.90625 162.0625 C 375.621094 161.769531 376.351562 161.515625 377.089844 161.292969 C 377.832031 161.070312 378.582031 160.886719 379.339844 160.738281 C 380.097656 160.589844 380.859375 160.476562 381.628906 160.402344 C 382.398438 160.328125 383.167969 160.289062 383.941406 160.289062 C 384.714844 160.289062 385.484375 160.328125 386.253906 160.402344 C 387.023438 160.476562 387.785156 160.589844 388.546875 160.738281 C 389.304688 160.886719 390.050781 161.070312 390.792969 161.292969 C 391.53125 161.515625 392.261719 161.769531 392.976562 162.0625 C 393.691406 162.355469 394.390625 162.679688 395.074219 163.039062 C 395.757812 163.402344 396.421875 163.792969 397.070312 164.21875 C 397.714844 164.640625 398.339844 165.097656 398.941406 165.582031 C 399.542969 166.066406 400.117188 166.578125 400.667969 167.121094 C 401.222656 167.660156 401.746094 168.226562 402.242188 168.816406 C 402.738281 169.410156 403.207031 170.023438 403.644531 170.660156 C 404.082031 171.296875 404.488281 171.953125 404.859375 172.632812 C 405.234375 173.308594 405.574219 174 405.882812 174.710938 C 406.1875 175.417969 406.460938 176.140625 406.695312 176.875 C 406.933594 177.613281 407.132812 178.359375 407.296875 179.113281 C 407.460938 179.867188 407.585938 180.628906 407.679688 181.394531 C 407.769531 182.164062 407.820312 182.933594 407.835938 183.707031 L 407.835938 235.46875 L 416.722656 235.46875 C 418.1875 234.761719 419.707031 234.226562 421.292969 233.863281 C 422.875 233.5 424.480469 233.320312 426.105469 233.320312 C 427.730469 233.320312 429.332031 233.5 430.917969 233.863281 C 432.5 234.226562 434.023438 234.761719 435.484375 235.46875 L 459.582031 235.46875 C 460.363281 235.472656 461.144531 235.511719 461.921875 235.585938 C 462.699219 235.664062 463.472656 235.78125 464.238281 235.933594 C 465.007812 236.085938 465.765625 236.277344 466.511719 236.503906 C 467.261719 236.734375 467.996094 236.996094 468.71875 237.296875 C 469.441406 237.597656 470.148438 237.929688 470.835938 238.300781 C 471.527344 238.667969 472.195312 239.070312 472.847656 239.503906 C 473.496094 239.941406 474.125 240.40625 474.730469 240.902344 C 475.332031 241.398438 475.914062 241.921875 476.464844 242.476562 C 477.019531 243.027344 477.542969 243.609375 478.039062 244.210938 C 478.535156 244.816406 479 245.445312 479.4375 246.09375 C 479.871094 246.746094 480.273438 247.414062 480.640625 248.105469 C 481.011719 248.792969 481.34375 249.5 481.644531 250.222656 C 481.945312 250.945312 482.207031 251.679688 482.4375 252.429688 C 482.664062 253.175781 482.855469 253.933594 483.007812 254.703125 C 483.160156 255.46875 483.277344 256.242188 483.355469 257.019531 C 483.429688 257.796875 483.46875 258.578125 483.472656 259.359375 C 483.46875 260.8125 483.335938 262.257812 483.070312 263.6875 C 489.8125 265.027344 495.46875 267.667969 498.808594 273.589844 C 498.984375 273.902344 499.128906 274.226562 499.289062 274.570312 L 499.914062 272.691406 C 500.175781 271.894531 500.414062 271.09375 500.628906 270.285156 C 500.84375 269.476562 501.035156 268.664062 501.203125 267.84375 C 501.371094 267.023438 501.511719 266.199219 501.628906 265.371094 C 501.75 264.546875 501.84375 263.714844 501.910156 262.878906 C 501.980469 262.046875 502.023438 261.210938 502.042969 260.375 C 502.066406 259.539062 502.058594 258.703125 502.03125 257.867188 C 502 257.03125 501.945312 256.199219 501.867188 255.363281 C 501.789062 254.53125 501.683594 253.703125 501.558594 252.875 C 501.429688 252.050781 501.277344 251.226562 501.101562 250.410156 C 500.925781 249.59375 500.722656 248.78125 500.5 247.976562 C 500.273438 247.167969 500.027344 246.371094 499.753906 245.578125 C 499.484375 244.789062 499.1875 244.007812 498.871094 243.230469 C 498.554688 242.457031 498.210938 241.695312 497.851562 240.941406 C 497.488281 240.1875 497.101562 239.445312 496.695312 238.714844 C 496.289062 237.984375 495.859375 237.265625 495.410156 236.558594 C 494.960938 235.855469 494.492188 235.164062 494 234.484375 C 493.511719 233.808594 493 233.144531 492.472656 232.496094 C 491.941406 231.847656 491.394531 231.21875 490.828125 230.601562 C 490.261719 229.988281 489.679688 229.390625 489.074219 228.808594 C 488.472656 228.226562 487.855469 227.664062 487.21875 227.121094 C 486.585938 226.578125 485.933594 226.050781 485.269531 225.546875 C 484.601562 225.039062 483.921875 224.554688 483.226562 224.089844 C 482.53125 223.625 481.824219 223.179688 481.101562 222.753906 C 480.382812 222.332031 479.648438 221.929688 478.902344 221.550781 C 478.160156 221.167969 477.402344 220.8125 476.636719 220.476562 C 475.871094 220.140625 475.09375 219.828125 474.3125 219.535156 C 473.527344 219.246094 472.734375 218.980469 471.933594 218.738281 C 471.132812 218.492188 470.328125 218.273438 469.511719 218.078125 C 468.699219 217.882812 467.882812 217.710938 467.058594 217.566406 C 466.234375 217.417969 465.40625 217.296875 464.578125 217.199219 C 463.746094 217.097656 462.914062 217.027344 462.078125 216.976562 C 461.242188 216.929688 460.40625 216.902344 459.570312 216.902344 L 426.421875 216.902344 L 426.421875 183.707031 C 426.402344 182.328125 426.3125 180.953125 426.160156 179.585938 C 426.003906 178.214844 425.785156 176.859375 425.496094 175.507812 C 425.210938 174.160156 424.859375 172.832031 424.441406 171.515625 C 424.027344 170.203125 423.546875 168.914062 423.003906 167.648438 C 422.464844 166.378906 421.863281 165.140625 421.199219 163.933594 C 420.539062 162.726562 419.816406 161.550781 419.042969 160.414062 C 418.265625 159.273438 417.4375 158.175781 416.550781 157.117188 C 415.667969 156.0625 414.738281 155.046875 413.753906 154.082031 C 412.773438 153.113281 411.746094 152.199219 410.675781 151.332031 C 409.605469 150.464844 408.496094 149.652344 407.34375 148.890625 C 406.195312 148.132812 405.011719 147.429688 403.792969 146.789062 C 402.574219 146.144531 401.328125 145.558594 400.050781 145.039062 C 398.777344 144.515625 397.480469 144.054688 396.160156 143.660156 C 394.839844 143.261719 393.503906 142.933594 392.152344 142.664062 C 390.800781 142.398438 389.4375 142.199219 388.066406 142.066406 C 386.695312 141.933594 385.320312 141.863281 383.941406 141.863281 C 382.5625 141.863281 381.1875 141.933594 379.816406 142.066406 C 378.445312 142.199219 377.085938 142.398438 375.730469 142.664062 C 374.378906 142.933594 373.042969 143.261719 371.722656 143.660156 C 370.40625 144.054688 369.105469 144.515625 367.832031 145.039062 C 366.558594 145.558594 365.308594 146.144531 364.09375 146.789062 C 362.875 147.429688 361.691406 148.132812 360.539062 148.890625 C 359.390625 149.652344 358.277344 150.464844 357.207031 151.332031 C 356.136719 152.199219 355.109375 153.113281 354.128906 154.082031 C 353.148438 155.046875 352.214844 156.0625 351.332031 157.117188 C 350.449219 158.175781 349.617188 159.273438 348.839844 160.414062 C 348.066406 161.550781 347.347656 162.726562 346.683594 163.933594 C 346.023438 165.140625 345.417969 166.378906 344.878906 167.648438 C 344.335938 168.914062 343.855469 170.203125 343.441406 171.515625 C 343.023438 172.832031 342.671875 174.160156 342.386719 175.507812 C 342.097656 176.859375 341.878906 178.214844 341.722656 179.585938 C 341.570312 180.953125 341.480469 182.328125 341.460938 183.707031 L 341.460938 184.488281 C 346.453125 196.664062 349.308594 215.757812 345.472656 225.074219 Z M 345.472656 225.074219 " fill-opacity="1" fill-rule="nonzero"/></g><path fill="#7bc1b7" d="M 279.253906 203.28125 C 280.066406 209.398438 286.292969 220.328125 293.738281 228.726562 C 296.800781 232.171875 301.355469 236.605469 305.640625 238.179688 C 309.574219 239.53125 313.601562 239.902344 317.71875 239.296875 L 319.859375 244.191406 C 320.179688 244.925781 320.660156 245.542969 321.292969 246.035156 C 321.925781 246.527344 322.640625 246.839844 323.433594 246.96875 L 323.660156 247.683594 L 325.910156 246.707031 C 326.132812 247.339844 326.371094 247.917969 326.613281 248.476562 C 328.109375 251.902344 330.09375 255.007812 332.574219 257.804688 C 334.722656 260.175781 337.128906 262.242188 339.800781 264.003906 C 342.46875 265.765625 345.316406 267.167969 348.339844 268.207031 C 357.089844 271.347656 364.441406 270.300781 370.941406 269.371094 C 382.058594 267.777344 389.40625 266.730469 399.507812 288.046875 C 405.320312 300.339844 413.003906 311.523438 421.109375 319.578125 C 430.75 329.132812 440.984375 334.261719 450.714844 334.515625 C 465.160156 334.789062 477.863281 324.875 488.433594 304.910156 C 495.625 291.363281 497.417969 282.234375 494.050781 276.28125 C 489.882812 268.882812 479.613281 268.304688 467.714844 267.628906 C 458.652344 267.121094 448.414062 266.542969 440.308594 262.738281 C 440.628906 262.164062 440.910156 261.570312 441.15625 260.964844 C 441.398438 260.355469 441.609375 259.734375 441.777344 259.101562 C 441.949219 258.46875 442.078125 257.824219 442.171875 257.175781 C 442.261719 256.527344 442.316406 255.875 442.328125 255.21875 C 442.339844 254.5625 442.3125 253.910156 442.246094 253.257812 C 442.179688 252.605469 442.070312 251.957031 441.925781 251.320312 C 441.78125 250.679688 441.597656 250.050781 441.375 249.433594 C 441.152344 248.816406 440.894531 248.214844 440.597656 247.628906 C 440.300781 247.042969 439.972656 246.476562 439.609375 245.933594 C 439.242188 245.386719 438.847656 244.867188 438.421875 244.367188 C 437.992188 243.871094 437.535156 243.402344 437.050781 242.960938 C 436.566406 242.519531 436.058594 242.109375 435.523438 241.726562 C 434.988281 241.347656 434.429688 241.003906 433.855469 240.691406 C 433.277344 240.378906 432.683594 240.101562 432.074219 239.863281 C 431.460938 239.621094 430.839844 239.421875 430.203125 239.257812 C 429.570312 239.09375 428.925781 238.96875 428.277344 238.882812 C 427.625 238.796875 426.972656 238.75 426.316406 238.742188 C 425.660156 238.738281 425.007812 238.769531 424.355469 238.84375 C 423.703125 238.917969 423.058594 239.03125 422.421875 239.183594 C 421.785156 239.332031 421.15625 239.523438 420.542969 239.75 C 419.925781 239.980469 419.328125 240.242188 418.746094 240.542969 C 418.164062 240.84375 417.601562 241.179688 417.058594 241.550781 C 416.515625 241.917969 416 242.320312 415.503906 242.753906 C 415.011719 243.183594 414.546875 243.644531 414.109375 244.132812 C 413.671875 244.625 413.265625 245.136719 412.890625 245.675781 C 412.515625 246.214844 412.175781 246.773438 411.871094 247.351562 C 411.5625 247.933594 411.292969 248.527344 411.058594 249.140625 C 410.824219 249.753906 410.628906 250.378906 410.46875 251.015625 C 410.3125 251.652344 410.191406 252.296875 410.113281 252.945312 C 410.035156 253.597656 409.992188 254.25 409.992188 254.90625 C 409.992188 255.5625 410.03125 256.214844 410.113281 256.867188 C 410.191406 257.519531 410.308594 258.164062 410.46875 258.800781 C 410.625 259.4375 410.820312 260.058594 411.054688 260.671875 C 411.289062 261.285156 411.558594 261.882812 411.867188 262.460938 C 412.171875 263.042969 412.511719 263.601562 412.886719 264.140625 C 413.261719 264.679688 413.667969 265.191406 414.101562 265.683594 C 414.539062 266.171875 415.003906 266.632812 415.5 267.066406 C 415.992188 267.496094 416.507812 267.898438 417.050781 268.269531 C 417.59375 268.636719 418.15625 268.972656 418.738281 269.273438 C 419.320312 269.574219 419.917969 269.839844 420.535156 270.070312 C 421.148438 270.296875 421.773438 270.488281 422.414062 270.640625 C 423.050781 270.792969 423.695312 270.902344 424.347656 270.976562 C 425 271.050781 425.652344 271.085938 426.308594 271.078125 C 426.964844 271.074219 427.617188 271.027344 428.269531 270.941406 C 428.917969 270.855469 429.5625 270.730469 430.195312 270.566406 C 430.832031 270.40625 431.453125 270.203125 432.066406 269.964844 C 432.675781 269.722656 433.269531 269.449219 433.847656 269.136719 C 434.421875 268.824219 434.980469 268.480469 435.515625 268.101562 C 445.300781 273.289062 456.988281 273.972656 467.351562 274.539062 C 476.804688 275.070312 485.730469 275.578125 488.03125 279.667969 C 489.429688 282.132812 489.570312 287.949219 482.328125 301.628906 C 473.046875 319.109375 462.449219 327.871094 450.871094 327.574219 C 432.273438 327.164062 414.953125 304.4375 405.792969 285.109375 C 393.488281 259.164062 381.527344 260.878906 369.949219 262.53125 C 363.980469 263.382812 357.816406 264.273438 350.691406 261.710938 C 339.40625 257.65625 334.425781 250.011719 332.230469 243.964844 L 332.710938 243.757812 C 332.996094 243.632812 333.265625 243.484375 333.523438 243.304688 C 333.777344 243.128906 334.011719 242.925781 334.230469 242.703125 C 334.445312 242.476562 334.636719 242.234375 334.804688 241.972656 C 334.972656 241.710938 335.113281 241.433594 335.226562 241.144531 C 335.339844 240.855469 335.425781 240.554688 335.480469 240.25 C 335.535156 239.941406 335.558594 239.632812 335.550781 239.324219 C 335.546875 239.011719 335.511719 238.703125 335.445312 238.398438 C 335.378906 238.09375 335.28125 237.800781 335.15625 237.515625 L 333.003906 232.621094 C 336.25 230.015625 338.710938 226.808594 340.394531 223 C 344.523438 213.066406 339.191406 187.769531 332.722656 179.9375 C 329.785156 176.445312 325.332031 174.429688 319.695312 174.066406 C 319.332031 173.398438 318.886719 172.789062 318.363281 172.242188 C 317.835938 171.695312 317.246094 171.226562 316.59375 170.835938 C 315.941406 170.449219 315.246094 170.152344 314.515625 169.953125 C 313.78125 169.75 313.035156 169.652344 312.277344 169.652344 C 311.929688 169.652344 311.585938 169.675781 311.242188 169.71875 C 310.898438 169.761719 310.558594 169.828125 310.222656 169.910156 C 309.886719 169.996094 309.554688 170.101562 309.234375 170.230469 C 308.910156 170.355469 308.597656 170.503906 308.292969 170.667969 C 307.988281 170.832031 307.695312 171.015625 307.410156 171.21875 C 307.128906 171.417969 306.863281 171.636719 306.605469 171.871094 C 306.351562 172.105469 306.113281 172.355469 305.886719 172.621094 C 305.664062 172.886719 305.457031 173.164062 305.265625 173.453125 C 305.078125 173.742188 304.90625 174.042969 304.753906 174.355469 C 304.601562 174.664062 304.46875 174.984375 304.355469 175.3125 C 304.242188 175.640625 304.148438 175.972656 304.078125 176.3125 C 304.007812 176.652344 303.957031 176.992188 303.925781 177.339844 C 303.898438 177.683594 303.890625 178.03125 303.902344 178.375 C 303.917969 178.722656 303.953125 179.066406 304.007812 179.410156 C 304.0625 179.75 304.140625 180.089844 304.238281 180.421875 C 304.335938 180.753906 304.453125 181.078125 304.59375 181.394531 C 304.925781 182.160156 305.367188 182.859375 305.90625 183.492188 C 306.449219 184.125 307.074219 184.667969 307.777344 185.113281 C 308.480469 185.5625 309.230469 185.898438 310.035156 186.121094 C 310.839844 186.347656 311.65625 186.449219 312.492188 186.429688 C 313.324219 186.410156 314.136719 186.269531 314.929688 186.007812 C 315.71875 185.746094 316.457031 185.375 317.136719 184.898438 C 317.820312 184.417969 318.417969 183.847656 318.929688 183.1875 C 319.441406 182.53125 319.847656 181.8125 320.144531 181.035156 C 323.296875 181.355469 325.664062 182.394531 327.210938 184.136719 L 327.367188 184.324219 C 329.65625 187.082031 332.183594 194.167969 333.652344 201.9375 C 335.117188 209.710938 335.265625 217.160156 333.972656 220.261719 C 331.613281 225.945312 325.164062 229.765625 323.160156 230.851562 C 320.976562 231.605469 313.824219 233.726562 308.039062 231.59375 C 304.886719 230.4375 299.574219 225.339844 294.816406 218.871094 C 290.058594 212.402344 286.613281 205.835938 286.144531 202.234375 C 285.820312 199.855469 286.664062 197.339844 288.640625 194.695312 C 288.960938 194.824219 289.289062 194.933594 289.621094 195.019531 C 289.953125 195.109375 290.292969 195.175781 290.632812 195.222656 C 290.976562 195.265625 291.320312 195.292969 291.664062 195.296875 C 292.007812 195.300781 292.351562 195.28125 292.695312 195.246094 C 293.039062 195.207031 293.378906 195.148438 293.710938 195.066406 C 294.046875 194.988281 294.378906 194.886719 294.699219 194.765625 C 295.023438 194.644531 295.335938 194.503906 295.644531 194.34375 C 295.949219 194.1875 296.246094 194.007812 296.527344 193.8125 C 296.8125 193.617188 297.082031 193.40625 297.339844 193.175781 C 297.597656 192.945312 297.84375 192.703125 298.070312 192.445312 C 298.296875 192.183594 298.507812 191.914062 298.703125 191.628906 C 298.898438 191.34375 299.074219 191.046875 299.230469 190.742188 C 299.390625 190.433594 299.527344 190.121094 299.648438 189.796875 C 299.765625 189.472656 299.867188 189.140625 299.945312 188.808594 C 300.023438 188.472656 300.082031 188.132812 300.117188 187.789062 C 300.15625 187.445312 300.171875 187.101562 300.164062 186.757812 C 300.160156 186.414062 300.132812 186.070312 300.085938 185.726562 C 300.039062 185.386719 299.96875 185.046875 299.878906 184.714844 C 299.789062 184.382812 299.679688 184.054688 299.550781 183.734375 C 299.421875 183.417969 299.273438 183.105469 299.105469 182.804688 C 298.9375 182.503906 298.753906 182.214844 298.550781 181.933594 C 298.347656 181.65625 298.128906 181.390625 297.890625 181.140625 C 297.65625 180.886719 297.40625 180.652344 297.140625 180.429688 C 296.875 180.210938 296.597656 180.007812 296.308594 179.820312 C 296.019531 179.632812 295.71875 179.464844 295.40625 179.316406 C 295.097656 179.164062 294.777344 179.035156 294.449219 178.925781 C 294.125 178.816406 293.792969 178.726562 293.453125 178.65625 C 293.117188 178.585938 292.773438 178.535156 292.429688 178.507812 C 292.085938 178.480469 291.742188 178.476562 291.398438 178.492188 C 291.054688 178.503906 290.710938 178.539062 290.371094 178.597656 C 290.03125 178.65625 289.695312 178.730469 289.367188 178.832031 C 289.035156 178.929688 288.710938 179.046875 288.394531 179.183594 C 287.910156 179.394531 287.449219 179.648438 287.011719 179.949219 C 286.574219 180.246094 286.167969 180.582031 285.792969 180.957031 C 285.417969 181.332031 285.082031 181.738281 284.785156 182.175781 C 284.484375 182.613281 284.230469 183.074219 284.019531 183.5625 C 283.8125 184.046875 283.648438 184.546875 283.53125 185.0625 C 283.414062 185.582031 283.347656 186.105469 283.332031 186.632812 C 283.3125 187.164062 283.34375 187.6875 283.425781 188.210938 C 283.507812 188.734375 283.636719 189.246094 283.816406 189.746094 C 280.234375 194.121094 278.65625 198.789062 279.253906 203.28125 Z M 279.253906 203.28125 " fill-opacity="1" fill-rule="nonzero"/><g fill="#0b8fac" fill-opacity="1"><g transform="translate(198.713548, 468.091493)"><g><path d="M 23.125 0.890625 C 19.039062 0.890625 15.085938 0.335938 11.265625 -0.765625 C 7.453125 -1.878906 4.382812 -3.320312 2.0625 -5.09375 L 6.140625 -14.109375 C 8.347656 -12.484375 10.976562 -11.175781 14.03125 -10.1875 C 17.09375 -9.207031 20.148438 -8.71875 23.203125 -8.71875 C 26.597656 -8.71875 29.109375 -9.222656 30.734375 -10.234375 C 32.359375 -11.242188 33.171875 -12.585938 33.171875 -14.265625 C 33.171875 -15.492188 32.691406 -16.515625 31.734375 -17.328125 C 30.773438 -18.140625 29.539062 -18.789062 28.03125 -19.28125 C 26.53125 -19.78125 24.503906 -20.320312 21.953125 -20.90625 C 18.003906 -21.84375 14.773438 -22.78125 12.265625 -23.71875 C 9.753906 -24.65625 7.597656 -26.15625 5.796875 -28.21875 C 4.003906 -30.289062 3.109375 -33.050781 3.109375 -36.5 C 3.109375 -39.507812 3.921875 -42.234375 5.546875 -44.671875 C 7.171875 -47.109375 9.617188 -49.039062 12.890625 -50.46875 C 16.171875 -51.894531 20.175781 -52.609375 24.90625 -52.609375 C 28.207031 -52.609375 31.429688 -52.210938 34.578125 -51.421875 C 37.734375 -50.640625 40.492188 -49.507812 42.859375 -48.03125 L 39.15625 -38.9375 C 34.382812 -41.644531 29.609375 -43 24.828125 -43 C 21.472656 -43 18.992188 -42.457031 17.390625 -41.375 C 15.796875 -40.289062 15 -38.863281 15 -37.09375 C 15 -35.320312 15.921875 -34.003906 17.765625 -33.140625 C 19.617188 -32.273438 22.441406 -31.425781 26.234375 -30.59375 C 30.171875 -29.65625 33.394531 -28.71875 35.90625 -27.78125 C 38.414062 -26.84375 40.570312 -25.363281 42.375 -23.34375 C 44.175781 -21.320312 45.078125 -18.585938 45.078125 -15.140625 C 45.078125 -12.191406 44.25 -9.5 42.59375 -7.0625 C 40.945312 -4.625 38.472656 -2.6875 35.171875 -1.25 C 31.867188 0.175781 27.851562 0.890625 23.125 0.890625 Z M 23.125 0.890625 "/></g></g></g><g fill="#0b8fac" fill-opacity="1"><g transform="translate(245.85911, 468.091493)"><g><path d="M 29.109375 0.890625 C 21.722656 0.890625 15.972656 -1.148438 11.859375 -5.234375 C 7.742188 -9.328125 5.6875 -15.171875 5.6875 -22.765625 L 5.6875 -51.71875 L 17.65625 -51.71875 L 17.65625 -23.203125 C 17.65625 -13.941406 21.5 -9.3125 29.1875 -9.3125 C 32.925781 -9.3125 35.78125 -10.429688 37.75 -12.671875 C 39.726562 -14.910156 40.71875 -18.421875 40.71875 -23.203125 L 40.71875 -51.71875 L 52.53125 -51.71875 L 52.53125 -22.765625 C 52.53125 -15.171875 50.472656 -9.328125 46.359375 -5.234375 C 42.253906 -1.148438 36.503906 0.890625 29.109375 0.890625 Z M 29.109375 0.890625 "/></g></g></g><g fill="#0b8fac" fill-opacity="1"><g transform="translate(304.089061, 468.091493)"><g><path d="M 39.09375 0 L 29.109375 -14.40625 L 18.109375 -14.40625 L 18.109375 0 L 6.140625 0 L 6.140625 -51.71875 L 28.515625 -51.71875 C 33.097656 -51.71875 37.078125 -50.953125 40.453125 -49.421875 C 43.828125 -47.898438 46.425781 -45.734375 48.25 -42.921875 C 50.070312 -40.117188 50.984375 -36.796875 50.984375 -32.953125 C 50.984375 -29.109375 50.054688 -25.796875 48.203125 -23.015625 C 46.359375 -20.234375 43.738281 -18.101562 40.34375 -16.625 L 51.9375 0 Z M 38.859375 -32.953125 C 38.859375 -35.859375 37.921875 -38.085938 36.046875 -39.640625 C 34.179688 -41.191406 31.453125 -41.96875 27.859375 -41.96875 L 18.109375 -41.96875 L 18.109375 -23.9375 L 27.859375 -23.9375 C 31.453125 -23.9375 34.179688 -24.722656 36.046875 -26.296875 C 37.921875 -27.878906 38.859375 -30.097656 38.859375 -32.953125 Z M 38.859375 -32.953125 "/></g></g></g><g fill="#0b8fac" fill-opacity="1"><g transform="translate(358.402536, 468.091493)"><g><path d="M 41.078125 -26.671875 L 52.015625 -26.671875 L 52.015625 -5.6875 C 49.210938 -3.570312 45.960938 -1.945312 42.265625 -0.8125 C 38.566406 0.320312 34.847656 0.890625 31.109375 0.890625 C 25.734375 0.890625 20.90625 -0.253906 16.625 -2.546875 C 12.34375 -4.835938 8.976562 -8.015625 6.53125 -12.078125 C 4.09375 -16.140625 2.875 -20.734375 2.875 -25.859375 C 2.875 -30.984375 4.09375 -35.578125 6.53125 -39.640625 C 8.976562 -43.703125 12.367188 -46.878906 16.703125 -49.171875 C 21.035156 -51.460938 25.910156 -52.609375 31.328125 -52.609375 C 35.859375 -52.609375 39.972656 -51.84375 43.671875 -50.3125 C 47.367188 -48.789062 50.472656 -46.578125 52.984375 -43.671875 L 45.296875 -36.578125 C 41.597656 -40.460938 37.140625 -42.40625 31.921875 -42.40625 C 28.617188 -42.40625 25.6875 -41.71875 23.125 -40.34375 C 20.5625 -38.96875 18.566406 -37.019531 17.140625 -34.5 C 15.710938 -31.988281 15 -29.109375 15 -25.859375 C 15 -22.660156 15.710938 -19.800781 17.140625 -17.28125 C 18.566406 -14.769531 20.546875 -12.8125 23.078125 -11.40625 C 25.617188 -10.007812 28.515625 -9.3125 31.765625 -9.3125 C 35.222656 -9.3125 38.328125 -10.050781 41.078125 -11.53125 Z M 41.078125 -26.671875 "/></g></g></g><g fill="#0b8fac" fill-opacity="1"><g transform="translate(415.37626, 468.091493)"><g><path d="M 46.1875 -9.609375 L 46.1875 0 L 6.140625 0 L 6.140625 -51.71875 L 45.21875 -51.71875 L 45.21875 -42.125 L 18.03125 -42.125 L 18.03125 -30.890625 L 42.046875 -30.890625 L 42.046875 -21.578125 L 18.03125 -21.578125 L 18.03125 -9.609375 Z M 46.1875 -9.609375 "/></g></g></g><g fill="#0b8fac" fill-opacity="1"><g transform="translate(464.9604, 468.091493)"><g><path d="M 39.09375 0 L 29.109375 -14.40625 L 18.109375 -14.40625 L 18.109375 0 L 6.140625 0 L 6.140625 -51.71875 L 28.515625 -51.71875 C 33.097656 -51.71875 37.078125 -50.953125 40.453125 -49.421875 C 43.828125 -47.898438 46.425781 -45.734375 48.25 -42.921875 C 50.070312 -40.117188 50.984375 -36.796875 50.984375 -32.953125 C 50.984375 -29.109375 50.054688 -25.796875 48.203125 -23.015625 C 46.359375 -20.234375 43.738281 -18.101562 40.34375 -16.625 L 51.9375 0 Z M 38.859375 -32.953125 C 38.859375 -35.859375 37.921875 -38.085938 36.046875 -39.640625 C 34.179688 -41.191406 31.453125 -41.96875 27.859375 -41.96875 L 18.109375 -41.96875 L 18.109375 -23.9375 L 27.859375 -23.9375 C 31.453125 -23.9375 34.179688 -24.722656 36.046875 -26.296875 C 37.921875 -27.878906 38.859375 -30.097656 38.859375 -32.953125 Z M 38.859375 -32.953125 "/></g></g></g><g fill="#0b8fac" fill-opacity="1"><g transform="translate(519.273874, 468.091493)"><g><path d="M 30.953125 -18.328125 L 30.953125 0 L 18.984375 0 L 18.984375 -18.46875 L -1.03125 -51.71875 L 11.671875 -51.71875 L 25.5 -28.75 L 39.3125 -51.71875 L 51.0625 -51.71875 Z M 30.953125 -18.328125 "/></g></g></g><g fill="#0b8fac" fill-opacity="1"><g transform="translate(277.591336, 523.779786)"><g><path d="M 13.609375 0.390625 C 11.285156 0.390625 9.179688 -0.113281 7.296875 -1.125 C 5.421875 -2.132812 3.945312 -3.53125 2.875 -5.3125 C 1.800781 -7.101562 1.265625 -9.128906 1.265625 -11.390625 C 1.265625 -13.648438 1.800781 -15.671875 2.875 -17.453125 C 3.945312 -19.242188 5.421875 -20.644531 7.296875 -21.65625 C 9.179688 -22.664062 11.296875 -23.171875 13.640625 -23.171875 C 15.609375 -23.171875 17.390625 -22.820312 18.984375 -22.125 C 20.585938 -21.4375 21.929688 -20.441406 23.015625 -19.140625 L 19.625 -16.015625 C 18.082031 -17.796875 16.171875 -18.6875 13.890625 -18.6875 C 12.484375 -18.6875 11.226562 -18.375 10.125 -17.75 C 9.019531 -17.132812 8.15625 -16.269531 7.53125 -15.15625 C 6.914062 -14.050781 6.609375 -12.796875 6.609375 -11.390625 C 6.609375 -9.984375 6.914062 -8.722656 7.53125 -7.609375 C 8.15625 -6.503906 9.019531 -5.640625 10.125 -5.015625 C 11.226562 -4.398438 12.484375 -4.09375 13.890625 -4.09375 C 16.171875 -4.09375 18.082031 -4.992188 19.625 -6.796875 L 23.015625 -3.671875 C 21.929688 -2.347656 20.582031 -1.335938 18.96875 -0.640625 C 17.363281 0.046875 15.578125 0.390625 13.609375 0.390625 Z M 13.609375 0.390625 "/></g></g></g><g fill="#0b8fac" fill-opacity="1"><g transform="translate(311.201702, 523.779786)"><g><path d="M 13.734375 0.390625 C 11.367188 0.390625 9.234375 -0.117188 7.328125 -1.140625 C 5.429688 -2.160156 3.945312 -3.5625 2.875 -5.34375 C 1.800781 -7.132812 1.265625 -9.148438 1.265625 -11.390625 C 1.265625 -13.628906 1.800781 -15.640625 2.875 -17.421875 C 3.945312 -19.210938 5.429688 -20.617188 7.328125 -21.640625 C 9.234375 -22.660156 11.367188 -23.171875 13.734375 -23.171875 C 16.097656 -23.171875 18.222656 -22.660156 20.109375 -21.640625 C 22.003906 -20.617188 23.492188 -19.210938 24.578125 -17.421875 C 25.660156 -15.640625 26.203125 -13.628906 26.203125 -11.390625 C 26.203125 -9.148438 25.660156 -7.132812 24.578125 -5.34375 C 23.492188 -3.5625 22.003906 -2.160156 20.109375 -1.140625 C 18.222656 -0.117188 16.097656 0.390625 13.734375 0.390625 Z M 13.734375 -4.09375 C 15.078125 -4.09375 16.289062 -4.398438 17.375 -5.015625 C 18.457031 -5.640625 19.304688 -6.503906 19.921875 -7.609375 C 20.546875 -8.722656 20.859375 -9.984375 20.859375 -11.390625 C 20.859375 -12.796875 20.546875 -14.050781 19.921875 -15.15625 C 19.304688 -16.269531 18.457031 -17.132812 17.375 -17.75 C 16.289062 -18.375 15.078125 -18.6875 13.734375 -18.6875 C 12.390625 -18.6875 11.175781 -18.375 10.09375 -17.75 C 9.007812 -17.132812 8.15625 -16.269531 7.53125 -15.15625 C 6.914062 -14.050781 6.609375 -12.796875 6.609375 -11.390625 C 6.609375 -9.984375 6.914062 -8.722656 7.53125 -7.609375 C 8.15625 -6.503906 9.007812 -5.640625 10.09375 -5.015625 C 11.175781 -4.398438 12.390625 -4.09375 13.734375 -4.09375 Z M 13.734375 -4.09375 "/></g></g></g><g fill="#0b8fac" fill-opacity="1"><g transform="translate(348.423045, 523.779786)"><g><path d="M 10.1875 0.390625 C 8.382812 0.390625 6.640625 0.144531 4.953125 -0.34375 C 3.273438 -0.832031 1.925781 -1.46875 0.90625 -2.25 L 2.703125 -6.21875 C 3.679688 -5.5 4.84375 -4.921875 6.1875 -4.484375 C 7.53125 -4.054688 8.875 -3.84375 10.21875 -3.84375 C 11.71875 -3.84375 12.820312 -4.0625 13.53125 -4.5 C 14.25 -4.945312 14.609375 -5.539062 14.609375 -6.28125 C 14.609375 -6.820312 14.394531 -7.269531 13.96875 -7.625 C 13.550781 -7.988281 13.007812 -8.273438 12.34375 -8.484375 C 11.6875 -8.703125 10.796875 -8.941406 9.671875 -9.203125 C 7.929688 -9.617188 6.507812 -10.03125 5.40625 -10.4375 C 4.300781 -10.851562 3.347656 -11.515625 2.546875 -12.421875 C 1.753906 -13.335938 1.359375 -14.554688 1.359375 -16.078125 C 1.359375 -17.398438 1.71875 -18.597656 2.4375 -19.671875 C 3.15625 -20.742188 4.234375 -21.59375 5.671875 -22.21875 C 7.117188 -22.851562 8.882812 -23.171875 10.96875 -23.171875 C 12.425781 -23.171875 13.847656 -22.992188 15.234375 -22.640625 C 16.617188 -22.296875 17.832031 -21.800781 18.875 -21.15625 L 17.25 -17.15625 C 15.144531 -18.34375 13.039062 -18.9375 10.9375 -18.9375 C 9.457031 -18.9375 8.363281 -18.695312 7.65625 -18.21875 C 6.957031 -17.75 6.609375 -17.125 6.609375 -16.34375 C 6.609375 -15.5625 7.015625 -14.976562 7.828125 -14.59375 C 8.640625 -14.21875 9.878906 -13.84375 11.546875 -13.46875 C 13.285156 -13.0625 14.707031 -12.648438 15.8125 -12.234375 C 16.925781 -11.828125 17.878906 -11.175781 18.671875 -10.28125 C 19.460938 -9.394531 19.859375 -8.191406 19.859375 -6.671875 C 19.859375 -5.367188 19.492188 -4.179688 18.765625 -3.109375 C 18.035156 -2.035156 16.941406 -1.179688 15.484375 -0.546875 C 14.035156 0.078125 12.269531 0.390625 10.1875 0.390625 Z M 10.1875 0.390625 "/></g></g></g><g fill="#0b8fac" fill-opacity="1"><g transform="translate(378.942943, 523.779786)"><g><path d="M 7.421875 -18.484375 L 0.125 -18.484375 L 0.125 -22.78125 L 19.984375 -22.78125 L 19.984375 -18.484375 L 12.6875 -18.484375 L 12.6875 0 L 7.421875 0 Z M 7.421875 -18.484375 "/></g></g></g><g fill="#0b8fac" fill-opacity="1"><g transform="translate(408.812216, 523.779786)"><g><path d="M 2.703125 -22.78125 L 7.96875 -22.78125 L 7.96875 0 L 2.703125 0 Z M 2.703125 -22.78125 "/></g></g></g><g fill="#0b8fac" fill-opacity="1"><g transform="translate(429.247426, 523.779786)"><g><path d="M 23.59375 -22.78125 L 23.59375 0 L 19.265625 0 L 7.90625 -13.828125 L 7.90625 0 L 2.703125 0 L 2.703125 -22.78125 L 7.0625 -22.78125 L 18.390625 -8.953125 L 18.390625 -22.78125 Z M 23.59375 -22.78125 "/></g></g></g><g fill="#0b8fac" fill-opacity="1"><g transform="translate(465.297641, 523.779786)"><g><path d="M 18.09375 -11.75 L 22.90625 -11.75 L 22.90625 -2.5 C 21.675781 -1.570312 20.242188 -0.859375 18.609375 -0.359375 C 16.984375 0.140625 15.347656 0.390625 13.703125 0.390625 C 11.335938 0.390625 9.207031 -0.113281 7.3125 -1.125 C 5.425781 -2.132812 3.945312 -3.53125 2.875 -5.3125 C 1.800781 -7.101562 1.265625 -9.128906 1.265625 -11.390625 C 1.265625 -13.648438 1.800781 -15.671875 2.875 -17.453125 C 3.945312 -19.242188 5.4375 -20.644531 7.34375 -21.65625 C 9.257812 -22.664062 11.410156 -23.171875 13.796875 -23.171875 C 15.796875 -23.171875 17.609375 -22.832031 19.234375 -22.15625 C 20.859375 -21.488281 22.226562 -20.515625 23.34375 -19.234375 L 19.953125 -16.109375 C 18.328125 -17.828125 16.363281 -18.6875 14.0625 -18.6875 C 12.601562 -18.6875 11.3125 -18.378906 10.1875 -17.765625 C 9.0625 -17.160156 8.179688 -16.304688 7.546875 -15.203125 C 6.921875 -14.097656 6.609375 -12.828125 6.609375 -11.390625 C 6.609375 -9.984375 6.921875 -8.722656 7.546875 -7.609375 C 8.179688 -6.503906 9.054688 -5.640625 10.171875 -5.015625 C 11.285156 -4.398438 12.5625 -4.09375 14 -4.09375 C 15.507812 -4.09375 16.875 -4.421875 18.09375 -5.078125 Z M 18.09375 -11.75 "/></g></g></g><g fill="#0b8fac" fill-opacity="1"><g transform="translate(152.87355, 607.933575)"><g><path d="M 28.515625 -51.71875 C 33.097656 -51.71875 37.078125 -50.953125 40.453125 -49.421875 C 43.828125 -47.898438 46.425781 -45.734375 48.25 -42.921875 C 50.070312 -40.117188 50.984375 -36.796875 50.984375 -32.953125 C 50.984375 -29.160156 50.070312 -25.847656 48.25 -23.015625 C 46.425781 -20.179688 43.828125 -18.015625 40.453125 -16.515625 C 37.078125 -15.015625 33.097656 -14.265625 28.515625 -14.265625 L 18.109375 -14.265625 L 18.109375 0 L 6.140625 0 L 6.140625 -51.71875 Z M 27.859375 -24.015625 C 31.453125 -24.015625 34.179688 -24.789062 36.046875 -26.34375 C 37.921875 -27.894531 38.859375 -30.097656 38.859375 -32.953125 C 38.859375 -35.859375 37.921875 -38.085938 36.046875 -39.640625 C 34.179688 -41.191406 31.453125 -41.96875 27.859375 -41.96875 L 18.109375 -41.96875 L 18.109375 -24.015625 Z M 27.859375 -24.015625 "/></g></g></g><g fill="#0b8fac" fill-opacity="1"><g transform="translate(206.965329, 607.933575)"><g><path d="M 39.09375 0 L 29.109375 -14.40625 L 18.109375 -14.40625 L 18.109375 0 L 6.140625 0 L 6.140625 -51.71875 L 28.515625 -51.71875 C 33.097656 -51.71875 37.078125 -50.953125 40.453125 -49.421875 C 43.828125 -47.898438 46.425781 -45.734375 48.25 -42.921875 C 50.070312 -40.117188 50.984375 -36.796875 50.984375 -32.953125 C 50.984375 -29.109375 50.054688 -25.796875 48.203125 -23.015625 C 46.359375 -20.234375 43.738281 -18.101562 40.34375 -16.625 L 51.9375 0 Z M 38.859375 -32.953125 C 38.859375 -35.859375 37.921875 -38.085938 36.046875 -39.640625 C 34.179688 -41.191406 31.453125 -41.96875 27.859375 -41.96875 L 18.109375 -41.96875 L 18.109375 -23.9375 L 27.859375 -23.9375 C 31.453125 -23.9375 34.179688 -24.722656 36.046875 -26.296875 C 37.921875 -27.878906 38.859375 -30.097656 38.859375 -32.953125 Z M 38.859375 -32.953125 "/></g></g></g><g fill="#0b8fac" fill-opacity="1"><g transform="translate(261.278803, 607.933575)"><g><path d="M 31.1875 0.890625 C 25.8125 0.890625 20.96875 -0.265625 16.65625 -2.578125 C 12.351562 -4.898438 8.976562 -8.09375 6.53125 -12.15625 C 4.09375 -16.21875 2.875 -20.785156 2.875 -25.859375 C 2.875 -30.929688 4.09375 -35.5 6.53125 -39.5625 C 8.976562 -43.632812 12.351562 -46.828125 16.65625 -49.140625 C 20.96875 -51.453125 25.8125 -52.609375 31.1875 -52.609375 C 36.550781 -52.609375 41.375 -51.453125 45.65625 -49.140625 C 49.945312 -46.828125 53.320312 -43.632812 55.78125 -39.5625 C 58.25 -35.5 59.484375 -30.929688 59.484375 -25.859375 C 59.484375 -20.785156 58.25 -16.21875 55.78125 -12.15625 C 53.320312 -8.09375 49.945312 -4.898438 45.65625 -2.578125 C 41.375 -0.265625 36.550781 0.890625 31.1875 0.890625 Z M 31.1875 -9.3125 C 34.238281 -9.3125 36.992188 -10.007812 39.453125 -11.40625 C 41.921875 -12.8125 43.851562 -14.769531 45.25 -17.28125 C 46.65625 -19.800781 47.359375 -22.660156 47.359375 -25.859375 C 47.359375 -29.066406 46.65625 -31.925781 45.25 -34.4375 C 43.851562 -36.945312 41.921875 -38.898438 39.453125 -40.296875 C 36.992188 -41.703125 34.238281 -42.40625 31.1875 -42.40625 C 28.125 -42.40625 25.363281 -41.703125 22.90625 -40.296875 C 20.445312 -38.898438 18.515625 -36.945312 17.109375 -34.4375 C 15.703125 -31.925781 15 -29.066406 15 -25.859375 C 15 -22.660156 15.703125 -19.800781 17.109375 -17.28125 C 18.515625 -14.769531 20.445312 -12.8125 22.90625 -11.40625 C 25.363281 -10.007812 28.125 -9.3125 31.1875 -9.3125 Z M 31.1875 -9.3125 "/></g></g></g><g fill="#0b8fac" fill-opacity="1"><g transform="translate(323.646926, 607.933575)"><g><path d="M 55.859375 -51.71875 L 33.46875 0 L 21.65625 0 L -0.671875 -51.71875 L 12.265625 -51.71875 L 28 -14.78125 L 43.96875 -51.71875 Z M 55.859375 -51.71875 "/></g></g></g><g fill="#0b8fac" fill-opacity="1"><g transform="translate(378.773236, 607.933575)"><g><path d="M 6.140625 -51.71875 L 18.109375 -51.71875 L 18.109375 0 L 6.140625 0 Z M 6.140625 -51.71875 "/></g></g></g><g fill="#0b8fac" fill-opacity="1"><g transform="translate(403.011079, 607.933575)"><g><path d="M 6.140625 -51.71875 L 29.625 -51.71875 C 35.238281 -51.71875 40.203125 -50.644531 44.515625 -48.5 C 48.828125 -46.363281 52.175781 -43.347656 54.5625 -39.453125 C 56.957031 -35.566406 58.15625 -31.035156 58.15625 -25.859375 C 58.15625 -20.691406 56.957031 -16.160156 54.5625 -12.265625 C 52.175781 -8.367188 48.828125 -5.347656 44.515625 -3.203125 C 40.203125 -1.066406 35.238281 0 29.625 0 L 6.140625 0 Z M 29.03125 -9.828125 C 34.207031 -9.828125 38.332031 -11.265625 41.40625 -14.140625 C 44.488281 -17.023438 46.03125 -20.929688 46.03125 -25.859375 C 46.03125 -30.785156 44.488281 -34.6875 41.40625 -37.5625 C 38.332031 -40.445312 34.207031 -41.890625 29.03125 -41.890625 L 18.109375 -41.890625 L 18.109375 -9.828125 Z M 29.03125 -9.828125 "/></g></g></g><g fill="#0b8fac" fill-opacity="1"><g transform="translate(464.049076, 607.933575)"><g><path d="M 46.1875 -9.609375 L 46.1875 0 L 6.140625 0 L 6.140625 -51.71875 L 45.21875 -51.71875 L 45.21875 -42.125 L 18.03125 -42.125 L 18.03125 -30.890625 L 42.046875 -30.890625 L 42.046875 -21.578125 L 18.03125 -21.578125 L 18.03125 -9.609375 Z M 46.1875 -9.609375 "/></g></g></g><g fill="#0b8fac" fill-opacity="1"><g transform="translate(513.633216, 607.933575)"><g><path d="M 39.09375 0 L 29.109375 -14.40625 L 18.109375 -14.40625 L 18.109375 0 L 6.140625 0 L 6.140625 -51.71875 L 28.515625 -51.71875 C 33.097656 -51.71875 37.078125 -50.953125 40.453125 -49.421875 C 43.828125 -47.898438 46.425781 -45.734375 48.25 -42.921875 C 50.070312 -40.117188 50.984375 -36.796875 50.984375 -32.953125 C 50.984375 -29.109375 50.054688 -25.796875 48.203125 -23.015625 C 46.359375 -20.234375 43.738281 -18.101562 40.34375 -16.625 L 51.9375 0 Z M 38.859375 -32.953125 C 38.859375 -35.859375 37.921875 -38.085938 36.046875 -39.640625 C 34.179688 -41.191406 31.453125 -41.96875 27.859375 -41.96875 L 18.109375 -41.96875 L 18.109375 -23.9375 L 27.859375 -23.9375 C 31.453125 -23.9375 34.179688 -24.722656 36.046875 -26.296875 C 37.921875 -27.878906 38.859375 -30.097656 38.859375 -32.953125 Z M 38.859375 -32.953125 "/></g></g></g><g fill="#0b8fac" fill-opacity="1"><g transform="translate(567.94669, 607.933575)"><g><path d="M 23.125 0.890625 C 19.039062 0.890625 15.085938 0.335938 11.265625 -0.765625 C 7.453125 -1.878906 4.382812 -3.320312 2.0625 -5.09375 L 6.140625 -14.109375 C 8.347656 -12.484375 10.976562 -11.175781 14.03125 -10.1875 C 17.09375 -9.207031 20.148438 -8.71875 23.203125 -8.71875 C 26.597656 -8.71875 29.109375 -9.222656 30.734375 -10.234375 C 32.359375 -11.242188 33.171875 -12.585938 33.171875 -14.265625 C 33.171875 -15.492188 32.691406 -16.515625 31.734375 -17.328125 C 30.773438 -18.140625 29.539062 -18.789062 28.03125 -19.28125 C 26.53125 -19.78125 24.503906 -20.320312 21.953125 -20.90625 C 18.003906 -21.84375 14.773438 -22.78125 12.265625 -23.71875 C 9.753906 -24.65625 7.597656 -26.15625 5.796875 -28.21875 C 4.003906 -30.289062 3.109375 -33.050781 3.109375 -36.5 C 3.109375 -39.507812 3.921875 -42.234375 5.546875 -44.671875 C 7.171875 -47.109375 9.617188 -49.039062 12.890625 -50.46875 C 16.171875 -51.894531 20.175781 -52.609375 24.90625 -52.609375 C 28.207031 -52.609375 31.429688 -52.210938 34.578125 -51.421875 C 37.734375 -50.640625 40.492188 -49.507812 42.859375 -48.03125 L 39.15625 -38.9375 C 34.382812 -41.644531 29.609375 -43 24.828125 -43 C 21.472656 -43 18.992188 -42.457031 17.390625 -41.375 C 15.796875 -40.289062 15 -38.863281 15 -37.09375 C 15 -35.320312 15.921875 -34.003906 17.765625 -33.140625 C 19.617188 -32.273438 22.441406 -31.425781 26.234375 -30.59375 C 30.171875 -29.65625 33.394531 -28.71875 35.90625 -27.78125 C 38.414062 -26.84375 40.570312 -25.363281 42.375 -23.34375 C 44.175781 -21.320312 45.078125 -18.585938 45.078125 -15.140625 C 45.078125 -12.191406 44.25 -9.5 42.59375 -7.0625 C 40.945312 -4.625 38.472656 -2.6875 35.171875 -1.25 C 31.867188 0.175781 27.851562 0.890625 23.125 0.890625 Z M 23.125 0.890625 "/></g></g></g></svg>